<?xml version="1.0" encoding="UTF-8"?>
<svg width="256" height="256" viewBox="0 0 256 256" xmlns="http://www.w3.org/2000/svg">
  <!-- Background circle -->
  <circle cx="128" cy="128" r="120" fill="#2196F3" stroke="#1976D2" stroke-width="4"/>
  
  <!-- Docker whale body -->
  <ellipse cx="128" cy="140" rx="80" ry="50" fill="#FFFFFF"/>
  
  <!-- Container blocks on the whale -->
  <rect x="90" y="120" width="15" height="15" fill="#2196F3" rx="2"/>
  <rect x="110" y="120" width="15" height="15" fill="#2196F3" rx="2"/>
  <rect x="130" y="120" width="15" height="15" fill="#2196F3" rx="2"/>
  <rect x="150" y="120" width="15" height="15" fill="#2196F3" rx="2"/>
  
  <rect x="100" y="100" width="15" height="15" fill="#1976D2" rx="2"/>
  <rect x="120" y="100" width="15" height="15" fill="#1976D2" rx="2"/>
  <rect x="140" y="100" width="15" height="15" fill="#1976D2" rx="2"/>
  
  <rect x="110" y="80" width="15" height="15" fill="#0D47A1" rx="2"/>
  <rect x="130" y="80" width="15" height="15" fill="#0D47A1" rx="2"/>
  
  <!-- N8N+ text -->
  <text x="128" y="210" font-family="Arial, sans-serif" font-size="24" font-weight="bold" text-anchor="middle" fill="#FFFFFF">N8N+</text>
  
  <!-- Whale eye -->
  <circle cx="100" cy="130" r="8" fill="#1976D2"/>
  <circle cx="100" cy="130" r="4" fill="#FFFFFF"/>
  
  <!-- Water waves -->
  <path d="M 30 180 Q 60 170 90 180 T 150 180 T 210 180 T 270 180" stroke="#BBDEFB" stroke-width="3" fill="none"/>
  <path d="M 20 195 Q 50 185 80 195 T 140 195 T 200 195 T 260 195" stroke="#BBDEFB" stroke-width="2" fill="none"/>
</svg>
